<svg viewBox="7.187745098039215 6.2589999999999995 85.7892156862745 86.6932" xml:space="preserve" style="max-height: 500px" y="0px" x="0px" version="1.1" xmlns:xlink="http://www.w3.org/1999/xlink" xmlns="http://www.w3.org/2000/svg" width="85.7892156862745" height="86.6932"><style type="text/css">
	.st0{fill:none;stroke:#000000;stroke-miterlimit:10;}
</style><path d="M-61,7.8" class="st0"/><path d="M94.6,49.6l0-0.4l-5,0l0,0l-10-1.4l-5.5-1.6l-7.4-3.7l-4.3-3.5l-5.5-6.7L54.3,27l-1.7-5.6L50.6,5.1l-0.5,0l-0.5,0l-1.9,16.3  L46,27l-2.7,5.3l-5.5,6.7l-4.3,3.5l-7.4,3.7l-5.5,1.6l-10,1.4l0,0l-5,0l0,0.4l0,0.4l5,0l0,0l10,1.4l5.5,1.6l7.4,3.7l4.3,3.5l5.5,6.7  l2.7,5.3l1.7,5.6l1.9,16.3l0.5,0l0.5,0l1.9-16.3l1.7-5.6l2.7-5.3l5.5-6.7l4.3-3.5l7.4-3.7l5.5-1.6l10-1.4l0,0l5,0L94.6,49.6z   M63.3,53.1L60,53.5l1-3.3l3.7,0L63.3,53.1z M65.3,50.2l4.5,0l-1.8,2.3l-4,0.5L65.3,50.2z M59.4,53.6l-4,0.5l0.5-3.9l4.6,0  L59.4,53.6z M59.2,54.2l-0.9,2.9l-3.4,1l0.4-3.4L59.2,54.2z M58.1,57.7l-0.9,3.1l-2.8,1.4l0.4-3.5L58.1,57.7z M57,61.5L56,64.6  l-2.1,1.7l0.4-3.5L57,61.5z M57.7,61.2l2.1-1l-1.2,2.5L56.8,64L57.7,61.2z M57.9,60.5l0.9-2.9l2.7-0.8l-1.3,2.6L57.9,60.5z M59,56.9  l0.9-2.8l3.1-0.4l-1.2,2.4L59,56.9z M63.6,53.6l3.8-0.5L66,54.9l-3.5,1L63.6,53.6z M68.2,53l2.7-0.4l-1.6,1.3l-2.4,0.7L68.2,53z   M68.7,52.4l1.8-2.2l3.5,0l-2.2,1.8L68.7,52.4z M50.1,49.8l-23.7-0.2l23.7-0.2l23.7,0.2L50.1,49.8z M37,46.1l3.3-0.4l-1,3.3l-3.7,0  L37,46.1z M35,49l-4.5,0l1.8-2.3l4-0.5L35,49z M40.9,45.6l4-0.5l-0.5,3.9l-4.6,0L40.9,45.6z M41,45l0.9-2.9l3.4-1l-0.4,3.4L41,45z   M42.1,41.5l0.9-3.1l2.8-1.4l-0.4,3.5L42.1,41.5z M43.3,37.7l0.9-3.1l2.1-1.7l-0.4,3.5L43.3,37.7z M42.6,38.1l-2.1,1l1.2-2.5  l1.7-1.4L42.6,38.1z M42.4,38.8l-0.9,2.9l-2.7,0.8l1.3-2.6L42.4,38.8z M41.3,42.3l-0.9,2.8l-3.1,0.4l1.2-2.4L41.3,42.3z M36.6,45.6  l-3.8,0.5l1.4-1.8l3.5-1L36.6,45.6z M32,46.3l-2.7,0.4l1.6-1.3l2.4-0.7L32,46.3z M31.5,46.9L29.8,49l-3.5,0l2.2-1.8L31.5,46.9z   M40.3,53.5L37,53.1l-1.4-2.9l3.7,0L40.3,53.5z M39.8,50.3l4.6,0l0.5,3.9l-4-0.5L39.8,50.3z M36.3,53l-4-0.5l-1.8-2.3l4.5,0L36.3,53  z M31.5,52.4l-3-0.4l-2.2-1.8l3.5,0L31.5,52.4z M32,53l1.3,1.6l-2.4-0.7l-1.6-1.3L32,53z M32.8,53.1l3.8,0.5l1.2,2.3l-3.5-1  L32.8,53.1z M37.3,53.7l3.1,0.4l0.9,2.8l-2.8-0.8L37.3,53.7z M41.5,57.5l0.9,2.9l-2.2-1.1l-1.3-2.6L41.5,57.5z M42.6,61.2l0.9,2.8  l-1.7-1.4l-1.2-2.5L42.6,61.2z M43.3,61.5l2.6,1.3l0.4,3.5l-2.1-1.7L43.3,61.5z M43.1,60.8l-0.9-3.1l3.3,1l0.4,3.5L43.1,60.8z   M41.9,57.1L41,54.2l3.9,0.5l0.4,3.4L41.9,57.1z M60,45.7l3.3,0.4l1.4,2.9L61,49L60,45.7z M60.4,49l-4.6,0L55.4,45l4,0.5L60.4,49z   M63.9,46.2l4,0.5l1.8,2.3l-4.5,0L63.9,46.2z M68.7,46.9l3,0.4l2.2,1.8l-3.5,0L68.7,46.9z M68.2,46.3l-1.3-1.6l2.4,0.7l1.6,1.3  L68.2,46.3z M67.4,46.1l-3.8-0.5l-1.2-2.3l3.5,1L67.4,46.1z M63,45.5l-3.1-0.4L59,42.3l2.8,0.8L63,45.5z M58.8,41.7l-0.9-2.9  l2.2,1.1l1.3,2.6L58.8,41.7z M57.7,38.1l-0.9-2.8l1.7,1.4l1.2,2.5L57.7,38.1z M57,37.7l-2.6-1.3L53.9,33l2.1,1.7L57,37.7z   M57.2,38.4l0.9,3.1l-3.3-1l-0.4-3.5L57.2,38.4z M58.3,42.1l0.9,2.9l-3.9-0.5l-0.4-3.4L58.3,42.1z M85.5,49.2l-1.3,0L83,48.8  L85.5,49.2z M79.5,48.3l2.7,0.8l-2.2,0l-2-1L79.5,48.3z M78.8,49.1l-3.9,0l-2-1.7l3.6,0.5L78.8,49.1z M74.8,47.2L72,46.8l-1.2-1  l3.2,0.9L74.8,47.2z M71.1,45.3l-1.5-0.4l-1-0.8L71.1,45.3z M66.4,43l1.8,1.5l-1.9-0.6L65,42.3L66.4,43z M64.4,41.4l-0.2-0.1  L64,41.1L64.4,41.4z M65.4,43.6l-3.3-1l-1.2-2.4l2.9,1.4L65.4,43.6z M63,40.7l-2.5-1.2l-1-2l2.5,2L63,40.7z M60.4,37.5l-1.5-1.2  l-0.8-1.7L60.4,37.5z M56.5,32.6l1.4,2.8l-1.4-1.1l-0.8-2.7L56.5,32.6z M55.3,30.4L55.3,30.4l-0.1-0.2L55.3,30.4z M55.8,33.7  l-1.9-1.5l-0.4-3.3l1.3,1.6L55.8,33.7z M53.8,27.2l0.6,1.9l-1-1.3l-0.2-2L53.8,27.2z M50.6,9.6l1.1,9l-1.1-3.6L50.6,9.6z M50.6,16.8  l1.5,4.8l0.2,1.3l-1.6-3.2L50.6,16.8z M50.6,20.8l1.8,3.6l0.3,2.6l-2.2-2.7L50.6,20.8z M50.5,25.3l2.3,2.8l0.4,3.6l-2.7-2.2  L50.5,25.3z M50.5,30.2l2.8,2.3l0.4,3.7l-3.3-1.6L50.5,30.2z M50.5,35.1l3.4,1.7l0.4,3.6l-3.8-1.1L50.5,35.1z M50.5,39.8l3.9,1.1  l0.4,3.5l-4.3-0.6L50.5,39.8z M50.5,44.4l4.4,0.6l0.5,3.9l-4.9,0L50.5,44.4z M49.8,48.9l-4.9,0l0.5-3.9l4.4-0.6L49.8,48.9z   M49.8,43.8l-4.3,0.6l0.4-3.5l3.9-1.1L49.8,43.8z M49.8,39.2L46,40.4l0.4-3.6l3.4-1.7L49.8,39.2z M49.8,34.5l-3.3,1.6l0.4-3.7  l2.8-2.3L49.8,34.5z M49.7,9.6l0,5.4l-1.1,3.6L49.7,9.6z M48.2,21.6l1.5-4.8l0,2.8l-1.6,3.2L48.2,21.6z M47.9,24.5l1.8-3.6l0,3.6  l-2.2,2.7L47.9,24.5z M49.7,25.3l0,4.2L47,31.7l0.4-3.6L49.7,25.3z M46.5,27.2l0.7-1.3l-0.2,2l-1,1.3L46.5,27.2z M46.8,28.9  l-0.4,3.3l-1.9,1.5l1-3.2L46.8,28.9z M45,30.1l0,0.1l-0.1,0.1L45,30.1z M43.8,32.6l0.8-1l-0.8,2.7l-1.4,1.1L43.8,32.6z M42.2,34.6  l-0.8,1.7l-1.5,1.2L42.2,34.6z M38.2,39.5l2.5-2l-1,2l-2.5,1.2L38.2,39.5z M39.3,40.3l-1.2,2.4l-3.3,1l1.5-1.9L39.3,40.3z   M36.2,41.1l-0.2,0.2l-0.2,0.1L36.2,41.1z M33.9,43l1.4-0.7l-1.3,1.6L32,44.5L33.9,43z M31.6,44.1l-1,0.8l-1.5,0.4L31.6,44.1z   M26.4,46.7l3.2-0.9l-1.2,1l-2.9,0.4L26.4,46.7z M27.5,47.4l-2,1.7l-3.9,0l2.4-1.2L27.5,47.4z M20.8,48.3l1.4-0.2l-2,1l-2.2,0  L20.8,48.3z M17.2,48.8l-1.1,0.3l-1.3,0L17.2,48.8z M14.8,50.1l1.3,0l1.1,0.3L14.8,50.1z M20.8,50.9l-2.7-0.8l2.2,0l2,1L20.8,50.9z   M21.5,50.1l3.9,0l2,1.7l-3.6-0.5L21.5,50.1z M25.4,52.1l2.9,0.4l1.2,1l-3.2-0.9L25.4,52.1z M29.2,53.9l1.5,0.4l1,0.8L29.2,53.9z   M33.9,56.2L32,54.8l1.9,0.6l1.3,1.6L33.9,56.2z M35.8,57.8l0.2,0.1l0.2,0.2L35.8,57.8z M34.9,55.6l3.3,1l1.2,2.4l-2.9-1.4  L34.9,55.6z M37.2,58.5l2.5,1.2l1,2l-2.5-2L37.2,58.5z M39.9,61.8l1.5,1.2l0.8,1.7L39.9,61.8z M43.8,66.6l-1.4-2.8l1.4,1.1l0.8,2.7  L43.8,66.6z M44.9,68.9L44.9,68.9l0.1,0.2L44.9,68.9z M44.5,65.5l1.9,1.5l0.4,3.3l-1.3-1.6L44.5,65.5z M46.5,72l-0.6-1.9l1,1.3  l0.2,2L46.5,72z M49.7,89.7l-1.1-9l1.1,3.6L49.7,89.7z M49.7,82.4l-1.5-4.8l-0.2-1.3l1.6,3.2L49.7,82.4z M49.7,78.4l-1.8-3.6  l-0.3-2.6l2.2,2.7L49.7,78.4z M49.7,73.9l-2.3-2.8L47,67.5l2.7,2.2L49.7,73.9z M49.7,69l-2.8-2.3l-0.4-3.7l3.3,1.6L49.7,69z   M49.8,64.1l-3.4-1.7L46,58.9l3.8,1.1L49.8,64.1z M49.8,59.4l-3.9-1.1l-0.4-3.5l4.3,0.6L49.8,59.4z M49.8,54.8l-4.4-0.6L45,50.3  l4.9,0L49.8,54.8z M50.4,50.3l4.9,0l-0.5,3.9l-4.4,0.6L50.4,50.3z M50.5,55.4l4.3-0.6l-0.4,3.5l-3.9,1.1L50.5,55.4z M50.5,60  l3.8-1.1l-0.4,3.6l-3.4,1.7L50.5,60z M50.5,64.7l3.3-1.6l-0.4,3.7L50.5,69L50.5,64.7z M50.6,89.7l0-5.4l1.1-3.6L50.6,89.7z M52,77.7  l-1.5,4.8l0-2.8l1.6-3.2L52,77.7z M52.4,74.8l-1.8,3.6l0-3.6l2.2-2.7L52.4,74.8z M50.5,73.9l0-4.2l2.7-2.2l-0.4,3.6L50.5,73.9z   M53.8,72l-0.7,1.3l0.2-2l1-1.3L53.8,72z M53.5,70.3l0.4-3.3l1.9-1.5l-1,3.2L53.5,70.3z M55.2,69.1l0-0.1l0.1-0.1L55.2,69.1z   M56.5,66.6l-0.8,1l0.8-2.7l1.4-1.1L56.5,66.6z M58.1,64.6l0.8-1.7l1.5-1.2L58.1,64.6z M62,59.8l-2.5,2l1-2l2.5-1.2L62,59.8z   M60.9,58.9l1.2-2.4l3.3-1l-1.5,1.9L60.9,58.9z M64,58.1l0.2-0.2l0.2-0.1L64,58.1z M66.4,56.2L65,56.9l1.3-1.6l1.9-0.6L66.4,56.2z   M68.6,55.1l1-0.8l1.5-0.4L68.6,55.1z M73.9,52.5l-3.2,0.9l1.2-1l2.9-0.4L73.9,52.5z M72.8,51.8l2-1.7l3.9,0l-2.4,1.2L72.8,51.8z   M79.5,50.9L78,51.1l2-1l2.2,0L79.5,50.9z M83,50.4l1.1-0.3l1.3,0L83,50.4z"/><text font-family="'Helvetica Neue', Helvetica, Arial-Unicode, Arial, Sans-serif" font-weight="bold" font-size="5px" fill="#000000" y="115" x="0">Created by Abdo</text><text font-family="'Helvetica Neue', Helvetica, Arial-Unicode, Arial, Sans-serif" font-weight="bold" font-size="5px" fill="#000000" y="120" x="0">from the Noun Project</text></svg>